<?xml version="1.0" standalone="no"?>
<svg xmlns:xlink="http://www.w3.org/1999/xlink" id="wave" style="transform:rotate(0deg); transition: 0.3s" viewBox="0 0 1440 490" version="1.1" xmlns="http://www.w3.org/2000/svg"><defs><linearGradient id="sw-gradient-0" x1="0" x2="0" y1="1" y2="0"><stop stop-color="rgba(40, 187, 133, 1)" offset="0%"/><stop stop-color="rgba(190, 237, 192, 1)" offset="100%"/></linearGradient></defs><path style="transform:translate(0, 0px); opacity:1" fill="url(#sw-gradient-0)" d="M0,49L40,81.7C80,114,160,180,240,179.7C320,180,400,114,480,81.7C560,49,640,49,720,81.7C800,114,880,180,960,236.8C1040,294,1120,343,1200,302.2C1280,261,1360,131,1440,114.3C1520,98,1600,196,1680,212.3C1760,229,1840,163,1920,163.3C2000,163,2080,229,2160,220.5C2240,212,2320,131,2400,89.8C2480,49,2560,49,2640,73.5C2720,98,2800,147,2880,179.7C2960,212,3040,229,3120,245C3200,261,3280,278,3360,310.3C3440,343,3520,392,3600,375.7C3680,359,3760,278,3840,228.7C3920,180,4000,163,4080,204.2C4160,245,4240,343,4320,392C4400,441,4480,441,4560,383.8C4640,327,4720,212,4800,155.2C4880,98,4960,98,5040,155.2C5120,212,5200,327,5280,375.7C5360,425,5440,408,5520,400.2C5600,392,5680,392,5720,392L5760,392L5760,490L5720,490C5680,490,5600,490,5520,490C5440,490,5360,490,5280,490C5200,490,5120,490,5040,490C4960,490,4880,490,4800,490C4720,490,4640,490,4560,490C4480,490,4400,490,4320,490C4240,490,4160,490,4080,490C4000,490,3920,490,3840,490C3760,490,3680,490,3600,490C3520,490,3440,490,3360,490C3280,490,3200,490,3120,490C3040,490,2960,490,2880,490C2800,490,2720,490,2640,490C2560,490,2480,490,2400,490C2320,490,2240,490,2160,490C2080,490,2000,490,1920,490C1840,490,1760,490,1680,490C1600,490,1520,490,1440,490C1360,490,1280,490,1200,490C1120,490,1040,490,960,490C880,490,800,490,720,490C640,490,560,490,480,490C400,490,320,490,240,490C160,490,80,490,40,490L0,490Z"/><defs><linearGradient id="sw-gradient-1" x1="0" x2="0" y1="1" y2="0"><stop stop-color="rgba(40, 187, 133, 1)" offset="0%"/><stop stop-color="rgba(190, 237, 192, 1)" offset="100%"/></linearGradient></defs><path style="transform:translate(0, 50px); opacity:0.9" fill="url(#sw-gradient-1)" d="M0,343L40,343C80,343,160,343,240,359.3C320,376,400,408,480,400.2C560,392,640,343,720,294C800,245,880,196,960,171.5C1040,147,1120,147,1200,130.7C1280,114,1360,82,1440,89.8C1520,98,1600,147,1680,155.2C1760,163,1840,131,1920,130.7C2000,131,2080,163,2160,171.5C2240,180,2320,163,2400,155.2C2480,147,2560,147,2640,196C2720,245,2800,343,2880,318.5C2960,294,3040,147,3120,73.5C3200,0,3280,0,3360,24.5C3440,49,3520,98,3600,155.2C3680,212,3760,278,3840,253.2C3920,229,4000,114,4080,81.7C4160,49,4240,98,4320,130.7C4400,163,4480,180,4560,187.8C4640,196,4720,196,4800,171.5C4880,147,4960,98,5040,98C5120,98,5200,147,5280,147C5360,147,5440,98,5520,106.2C5600,114,5680,180,5720,212.3L5760,245L5760,490L5720,490C5680,490,5600,490,5520,490C5440,490,5360,490,5280,490C5200,490,5120,490,5040,490C4960,490,4880,490,4800,490C4720,490,4640,490,4560,490C4480,490,4400,490,4320,490C4240,490,4160,490,4080,490C4000,490,3920,490,3840,490C3760,490,3680,490,3600,490C3520,490,3440,490,3360,490C3280,490,3200,490,3120,490C3040,490,2960,490,2880,490C2800,490,2720,490,2640,490C2560,490,2480,490,2400,490C2320,490,2240,490,2160,490C2080,490,2000,490,1920,490C1840,490,1760,490,1680,490C1600,490,1520,490,1440,490C1360,490,1280,490,1200,490C1120,490,1040,490,960,490C880,490,800,490,720,490C640,490,560,490,480,490C400,490,320,490,240,490C160,490,80,490,40,490L0,490Z"/><defs><linearGradient id="sw-gradient-2" x1="0" x2="0" y1="1" y2="0"><stop stop-color="rgba(40, 187, 133, 1)" offset="0%"/><stop stop-color="rgba(190, 237, 192, 1)" offset="100%"/></linearGradient></defs><path style="transform:translate(0, 100px); opacity:0.8" fill="url(#sw-gradient-2)" d="M0,441L40,392C80,343,160,245,240,187.8C320,131,400,114,480,89.8C560,65,640,33,720,81.7C800,131,880,261,960,302.2C1040,343,1120,294,1200,261.3C1280,229,1360,212,1440,187.8C1520,163,1600,131,1680,155.2C1760,180,1840,261,1920,318.5C2000,376,2080,408,2160,408.3C2240,408,2320,376,2400,351.2C2480,327,2560,310,2640,326.7C2720,343,2800,392,2880,367.5C2960,343,3040,245,3120,245C3200,245,3280,343,3360,392C3440,441,3520,441,3600,432.8C3680,425,3760,408,3840,359.3C3920,310,4000,229,4080,171.5C4160,114,4240,82,4320,130.7C4400,180,4480,310,4560,343C4640,376,4720,310,4800,245C4880,180,4960,114,5040,98C5120,82,5200,114,5280,163.3C5360,212,5440,278,5520,253.2C5600,229,5680,114,5720,57.2L5760,0L5760,490L5720,490C5680,490,5600,490,5520,490C5440,490,5360,490,5280,490C5200,490,5120,490,5040,490C4960,490,4880,490,4800,490C4720,490,4640,490,4560,490C4480,490,4400,490,4320,490C4240,490,4160,490,4080,490C4000,490,3920,490,3840,490C3760,490,3680,490,3600,490C3520,490,3440,490,3360,490C3280,490,3200,490,3120,490C3040,490,2960,490,2880,490C2800,490,2720,490,2640,490C2560,490,2480,490,2400,490C2320,490,2240,490,2160,490C2080,490,2000,490,1920,490C1840,490,1760,490,1680,490C1600,490,1520,490,1440,490C1360,490,1280,490,1200,490C1120,490,1040,490,960,490C880,490,800,490,720,490C640,490,560,490,480,490C400,490,320,490,240,490C160,490,80,490,40,490L0,490Z"/><defs><linearGradient id="sw-gradient-3" x1="0" x2="0" y1="1" y2="0"><stop stop-color="rgba(40, 187, 133, 1)" offset="0%"/><stop stop-color="rgba(190, 237, 192, 1)" offset="100%"/></linearGradient></defs><path style="transform:translate(0, 150px); opacity:0.7" fill="url(#sw-gradient-3)" d="M0,147L40,171.5C80,196,160,245,240,269.5C320,294,400,294,480,253.2C560,212,640,131,720,114.3C800,98,880,147,960,179.7C1040,212,1120,229,1200,253.2C1280,278,1360,310,1440,326.7C1520,343,1600,343,1680,318.5C1760,294,1840,245,1920,228.7C2000,212,2080,229,2160,204.2C2240,180,2320,114,2400,73.5C2480,33,2560,16,2640,49C2720,82,2800,163,2880,236.8C2960,310,3040,376,3120,375.7C3200,376,3280,310,3360,285.8C3440,261,3520,278,3600,253.2C3680,229,3760,163,3840,171.5C3920,180,4000,261,4080,318.5C4160,376,4240,408,4320,392C4400,376,4480,310,4560,245C4640,180,4720,114,4800,89.8C4880,65,4960,82,5040,122.5C5120,163,5200,229,5280,228.7C5360,229,5440,163,5520,138.8C5600,114,5680,131,5720,138.8L5760,147L5760,490L5720,490C5680,490,5600,490,5520,490C5440,490,5360,490,5280,490C5200,490,5120,490,5040,490C4960,490,4880,490,4800,490C4720,490,4640,490,4560,490C4480,490,4400,490,4320,490C4240,490,4160,490,4080,490C4000,490,3920,490,3840,490C3760,490,3680,490,3600,490C3520,490,3440,490,3360,490C3280,490,3200,490,3120,490C3040,490,2960,490,2880,490C2800,490,2720,490,2640,490C2560,490,2480,490,2400,490C2320,490,2240,490,2160,490C2080,490,2000,490,1920,490C1840,490,1760,490,1680,490C1600,490,1520,490,1440,490C1360,490,1280,490,1200,490C1120,490,1040,490,960,490C880,490,800,490,720,490C640,490,560,490,480,490C400,490,320,490,240,490C160,490,80,490,40,490L0,490Z"/></svg>