<?xml version="1.0" standalone="no"?>
<svg xmlns:xlink="http://www.w3.org/1999/xlink" id="wave" style="transform:rotate(0deg); transition: 0.3s" viewBox="0 0 1440 490" version="1.1" xmlns="http://www.w3.org/2000/svg"><defs><linearGradient id="sw-gradient-0" x1="0" x2="0" y1="1" y2="0"><stop stop-color="rgba(40, 187, 133, 1)" offset="0%"/><stop stop-color="rgba(190, 237, 192, 1)" offset="100%"/></linearGradient></defs><path style="transform:translate(0, 0px); opacity:1" fill="url(#sw-gradient-0)" d="M0,49L40,81.7C80,114,160,180,240,196C320,212,400,180,480,171.5C560,163,640,180,720,187.8C800,196,880,196,960,171.5C1040,147,1120,98,1200,81.7C1280,65,1360,82,1440,98C1520,114,1600,131,1680,147C1760,163,1840,180,1920,212.3C2000,245,2080,294,2160,318.5C2240,343,2320,343,2400,334.8C2480,327,2560,310,2640,318.5C2720,327,2800,359,2880,383.8C2960,408,3040,425,3120,424.7C3200,425,3280,408,3360,334.8C3440,261,3520,131,3600,106.2C3680,82,3760,163,3840,179.7C3920,196,4000,147,4080,147C4160,147,4240,196,4320,245C4400,294,4480,343,4560,375.7C4640,408,4720,425,4800,408.3C4880,392,4960,343,5040,334.8C5120,327,5200,359,5280,359.3C5360,359,5440,327,5520,334.8C5600,343,5680,392,5720,416.5L5760,441L5760,490L5720,490C5680,490,5600,490,5520,490C5440,490,5360,490,5280,490C5200,490,5120,490,5040,490C4960,490,4880,490,4800,490C4720,490,4640,490,4560,490C4480,490,4400,490,4320,490C4240,490,4160,490,4080,490C4000,490,3920,490,3840,490C3760,490,3680,490,3600,490C3520,490,3440,490,3360,490C3280,490,3200,490,3120,490C3040,490,2960,490,2880,490C2800,490,2720,490,2640,490C2560,490,2480,490,2400,490C2320,490,2240,490,2160,490C2080,490,2000,490,1920,490C1840,490,1760,490,1680,490C1600,490,1520,490,1440,490C1360,490,1280,490,1200,490C1120,490,1040,490,960,490C880,490,800,490,720,490C640,490,560,490,480,490C400,490,320,490,240,490C160,490,80,490,40,490L0,490Z"/><defs><linearGradient id="sw-gradient-1" x1="0" x2="0" y1="1" y2="0"><stop stop-color="rgba(40, 187, 133, 1)" offset="0%"/><stop stop-color="rgba(190, 237, 192, 1)" offset="100%"/></linearGradient></defs><path style="transform:translate(0, 50px); opacity:0.9" fill="url(#sw-gradient-1)" d="M0,441L40,400.2C80,359,160,278,240,245C320,212,400,229,480,204.2C560,180,640,114,720,130.7C800,147,880,245,960,277.7C1040,310,1120,278,1200,269.5C1280,261,1360,278,1440,245C1520,212,1600,131,1680,138.8C1760,147,1840,245,1920,277.7C2000,310,2080,278,2160,253.2C2240,229,2320,212,2400,187.8C2480,163,2560,131,2640,114.3C2720,98,2800,98,2880,122.5C2960,147,3040,196,3120,253.2C3200,310,3280,376,3360,359.3C3440,343,3520,245,3600,228.7C3680,212,3760,278,3840,253.2C3920,229,4000,114,4080,89.8C4160,65,4240,131,4320,196C4400,261,4480,327,4560,343C4640,359,4720,327,4800,277.7C4880,229,4960,163,5040,179.7C5120,196,5200,294,5280,294C5360,294,5440,196,5520,187.8C5600,180,5680,261,5720,302.2L5760,343L5760,490L5720,490C5680,490,5600,490,5520,490C5440,490,5360,490,5280,490C5200,490,5120,490,5040,490C4960,490,4880,490,4800,490C4720,490,4640,490,4560,490C4480,490,4400,490,4320,490C4240,490,4160,490,4080,490C4000,490,3920,490,3840,490C3760,490,3680,490,3600,490C3520,490,3440,490,3360,490C3280,490,3200,490,3120,490C3040,490,2960,490,2880,490C2800,490,2720,490,2640,490C2560,490,2480,490,2400,490C2320,490,2240,490,2160,490C2080,490,2000,490,1920,490C1840,490,1760,490,1680,490C1600,490,1520,490,1440,490C1360,490,1280,490,1200,490C1120,490,1040,490,960,490C880,490,800,490,720,490C640,490,560,490,480,490C400,490,320,490,240,490C160,490,80,490,40,490L0,490Z"/><defs><linearGradient id="sw-gradient-2" x1="0" x2="0" y1="1" y2="0"><stop stop-color="rgba(40, 187, 133, 1)" offset="0%"/><stop stop-color="rgba(190, 237, 192, 1)" offset="100%"/></linearGradient></defs><path style="transform:translate(0, 100px); opacity:0.8" fill="url(#sw-gradient-2)" d="M0,294L40,302.2C80,310,160,327,240,351.2C320,376,400,408,480,367.5C560,327,640,212,720,179.7C800,147,880,196,960,220.5C1040,245,1120,245,1200,253.2C1280,261,1360,278,1440,253.2C1520,229,1600,163,1680,187.8C1760,212,1840,327,1920,367.5C2000,408,2080,376,2160,375.7C2240,376,2320,408,2400,400.2C2480,392,2560,343,2640,318.5C2720,294,2800,294,2880,245C2960,196,3040,98,3120,114.3C3200,131,3280,261,3360,294C3440,327,3520,261,3600,220.5C3680,180,3760,163,3840,179.7C3920,196,4000,245,4080,220.5C4160,196,4240,98,4320,114.3C4400,131,4480,261,4560,294C4640,327,4720,261,4800,236.8C4880,212,4960,229,5040,228.7C5120,229,5200,212,5280,220.5C5360,229,5440,261,5520,261.3C5600,261,5680,229,5720,212.3L5760,196L5760,490L5720,490C5680,490,5600,490,5520,490C5440,490,5360,490,5280,490C5200,490,5120,490,5040,490C4960,490,4880,490,4800,490C4720,490,4640,490,4560,490C4480,490,4400,490,4320,490C4240,490,4160,490,4080,490C4000,490,3920,490,3840,490C3760,490,3680,490,3600,490C3520,490,3440,490,3360,490C3280,490,3200,490,3120,490C3040,490,2960,490,2880,490C2800,490,2720,490,2640,490C2560,490,2480,490,2400,490C2320,490,2240,490,2160,490C2080,490,2000,490,1920,490C1840,490,1760,490,1680,490C1600,490,1520,490,1440,490C1360,490,1280,490,1200,490C1120,490,1040,490,960,490C880,490,800,490,720,490C640,490,560,490,480,490C400,490,320,490,240,490C160,490,80,490,40,490L0,490Z"/><defs><linearGradient id="sw-gradient-3" x1="0" x2="0" y1="1" y2="0"><stop stop-color="rgba(40, 187, 133, 1)" offset="0%"/><stop stop-color="rgba(190, 237, 192, 1)" offset="100%"/></linearGradient></defs><path style="transform:translate(0, 150px); opacity:0.7" fill="url(#sw-gradient-3)" d="M0,392L40,334.8C80,278,160,163,240,122.5C320,82,400,114,480,114.3C560,114,640,82,720,130.7C800,180,880,310,960,326.7C1040,343,1120,245,1200,187.8C1280,131,1360,114,1440,114.3C1520,114,1600,131,1680,122.5C1760,114,1840,82,1920,81.7C2000,82,2080,114,2160,171.5C2240,229,2320,310,2400,359.3C2480,408,2560,425,2640,432.8C2720,441,2800,441,2880,416.5C2960,392,3040,343,3120,277.7C3200,212,3280,131,3360,122.5C3440,114,3520,180,3600,236.8C3680,294,3760,343,3840,367.5C3920,392,4000,392,4080,400.2C4160,408,4240,425,4320,359.3C4400,294,4480,147,4560,106.2C4640,65,4720,131,4800,147C4880,163,4960,131,5040,106.2C5120,82,5200,65,5280,81.7C5360,98,5440,147,5520,147C5600,147,5680,98,5720,73.5L5760,49L5760,490L5720,490C5680,490,5600,490,5520,490C5440,490,5360,490,5280,490C5200,490,5120,490,5040,490C4960,490,4880,490,4800,490C4720,490,4640,490,4560,490C4480,490,4400,490,4320,490C4240,490,4160,490,4080,490C4000,490,3920,490,3840,490C3760,490,3680,490,3600,490C3520,490,3440,490,3360,490C3280,490,3200,490,3120,490C3040,490,2960,490,2880,490C2800,490,2720,490,2640,490C2560,490,2480,490,2400,490C2320,490,2240,490,2160,490C2080,490,2000,490,1920,490C1840,490,1760,490,1680,490C1600,490,1520,490,1440,490C1360,490,1280,490,1200,490C1120,490,1040,490,960,490C880,490,800,490,720,490C640,490,560,490,480,490C400,490,320,490,240,490C160,490,80,490,40,490L0,490Z"/></svg>