<?xml version="1.0" standalone="no"?>
<svg xmlns:xlink="http://www.w3.org/1999/xlink" id="wave" style="transform:rotate(0deg); transition: 0.3s" viewBox="0 0 1440 490" version="1.1" xmlns="http://www.w3.org/2000/svg"><defs><linearGradient id="sw-gradient-0" x1="0" x2="0" y1="1" y2="0"><stop stop-color="rgba(40, 187, 133, 1)" offset="0%"/><stop stop-color="rgba(190, 237, 192, 1)" offset="100%"/></linearGradient></defs><path style="transform:translate(0, 0px); opacity:1" fill="url(#sw-gradient-0)" d="M0,294L40,269.5C80,245,160,196,240,187.8C320,180,400,212,480,220.5C560,229,640,212,720,236.8C800,261,880,327,960,318.5C1040,310,1120,229,1200,220.5C1280,212,1360,278,1440,269.5C1520,261,1600,180,1680,122.5C1760,65,1840,33,1920,89.8C2000,147,2080,294,2160,326.7C2240,359,2320,278,2400,277.7C2480,278,2560,359,2640,400.2C2720,441,2800,441,2880,383.8C2960,327,3040,212,3120,179.7C3200,147,3280,196,3360,220.5C3440,245,3520,245,3600,212.3C3680,180,3760,114,3840,89.8C3920,65,4000,82,4080,73.5C4160,65,4240,33,4320,24.5C4400,16,4480,33,4560,65.3C4640,98,4720,147,4800,212.3C4880,278,4960,359,5040,326.7C5120,294,5200,147,5280,89.8C5360,33,5440,65,5520,73.5C5600,82,5680,65,5720,57.2L5760,49L5760,490L5720,490C5680,490,5600,490,5520,490C5440,490,5360,490,5280,490C5200,490,5120,490,5040,490C4960,490,4880,490,4800,490C4720,490,4640,490,4560,490C4480,490,4400,490,4320,490C4240,490,4160,490,4080,490C4000,490,3920,490,3840,490C3760,490,3680,490,3600,490C3520,490,3440,490,3360,490C3280,490,3200,490,3120,490C3040,490,2960,490,2880,490C2800,490,2720,490,2640,490C2560,490,2480,490,2400,490C2320,490,2240,490,2160,490C2080,490,2000,490,1920,490C1840,490,1760,490,1680,490C1600,490,1520,490,1440,490C1360,490,1280,490,1200,490C1120,490,1040,490,960,490C880,490,800,490,720,490C640,490,560,490,480,490C400,490,320,490,240,490C160,490,80,490,40,490L0,490Z"/><defs><linearGradient id="sw-gradient-1" x1="0" x2="0" y1="1" y2="0"><stop stop-color="rgba(40, 187, 133, 1)" offset="0%"/><stop stop-color="rgba(190, 237, 192, 1)" offset="100%"/></linearGradient></defs><path style="transform:translate(0, 50px); opacity:0.9" fill="url(#sw-gradient-1)" d="M0,98L40,138.8C80,180,160,261,240,261.3C320,261,400,180,480,171.5C560,163,640,229,720,285.8C800,343,880,392,960,392C1040,392,1120,343,1200,310.3C1280,278,1360,261,1440,253.2C1520,245,1600,245,1680,261.3C1760,278,1840,310,1920,294C2000,278,2080,212,2160,228.7C2240,245,2320,343,2400,383.8C2480,425,2560,408,2640,343C2720,278,2800,163,2880,114.3C2960,65,3040,82,3120,73.5C3200,65,3280,33,3360,24.5C3440,16,3520,33,3600,65.3C3680,98,3760,147,3840,147C3920,147,4000,98,4080,106.2C4160,114,4240,180,4320,171.5C4400,163,4480,82,4560,81.7C4640,82,4720,163,4800,212.3C4880,261,4960,278,5040,285.8C5120,294,5200,294,5280,310.3C5360,327,5440,359,5520,334.8C5600,310,5680,229,5720,187.8L5760,147L5760,490L5720,490C5680,490,5600,490,5520,490C5440,490,5360,490,5280,490C5200,490,5120,490,5040,490C4960,490,4880,490,4800,490C4720,490,4640,490,4560,490C4480,490,4400,490,4320,490C4240,490,4160,490,4080,490C4000,490,3920,490,3840,490C3760,490,3680,490,3600,490C3520,490,3440,490,3360,490C3280,490,3200,490,3120,490C3040,490,2960,490,2880,490C2800,490,2720,490,2640,490C2560,490,2480,490,2400,490C2320,490,2240,490,2160,490C2080,490,2000,490,1920,490C1840,490,1760,490,1680,490C1600,490,1520,490,1440,490C1360,490,1280,490,1200,490C1120,490,1040,490,960,490C880,490,800,490,720,490C640,490,560,490,480,490C400,490,320,490,240,490C160,490,80,490,40,490L0,490Z"/><defs><linearGradient id="sw-gradient-2" x1="0" x2="0" y1="1" y2="0"><stop stop-color="rgba(40, 187, 133, 1)" offset="0%"/><stop stop-color="rgba(190, 237, 192, 1)" offset="100%"/></linearGradient></defs><path style="transform:translate(0, 100px); opacity:0.8" fill="url(#sw-gradient-2)" d="M0,0L40,65.3C80,131,160,261,240,285.8C320,310,400,229,480,179.7C560,131,640,114,720,155.2C800,196,880,294,960,294C1040,294,1120,196,1200,130.7C1280,65,1360,33,1440,81.7C1520,131,1600,261,1680,261.3C1760,261,1840,131,1920,122.5C2000,114,2080,229,2160,277.7C2240,327,2320,310,2400,302.2C2480,294,2560,294,2640,302.2C2720,310,2800,327,2880,294C2960,261,3040,180,3120,155.2C3200,131,3280,163,3360,204.2C3440,245,3520,294,3600,318.5C3680,343,3760,343,3840,351.2C3920,359,4000,376,4080,359.3C4160,343,4240,294,4320,236.8C4400,180,4480,114,4560,147C4640,180,4720,310,4800,351.2C4880,392,4960,343,5040,343C5120,343,5200,392,5280,392C5360,392,5440,343,5520,343C5600,343,5680,392,5720,416.5L5760,441L5760,490L5720,490C5680,490,5600,490,5520,490C5440,490,5360,490,5280,490C5200,490,5120,490,5040,490C4960,490,4880,490,4800,490C4720,490,4640,490,4560,490C4480,490,4400,490,4320,490C4240,490,4160,490,4080,490C4000,490,3920,490,3840,490C3760,490,3680,490,3600,490C3520,490,3440,490,3360,490C3280,490,3200,490,3120,490C3040,490,2960,490,2880,490C2800,490,2720,490,2640,490C2560,490,2480,490,2400,490C2320,490,2240,490,2160,490C2080,490,2000,490,1920,490C1840,490,1760,490,1680,490C1600,490,1520,490,1440,490C1360,490,1280,490,1200,490C1120,490,1040,490,960,490C880,490,800,490,720,490C640,490,560,490,480,490C400,490,320,490,240,490C160,490,80,490,40,490L0,490Z"/><defs><linearGradient id="sw-gradient-3" x1="0" x2="0" y1="1" y2="0"><stop stop-color="rgba(40, 187, 133, 1)" offset="0%"/><stop stop-color="rgba(190, 237, 192, 1)" offset="100%"/></linearGradient></defs><path style="transform:translate(0, 150px); opacity:0.7" fill="url(#sw-gradient-3)" d="M0,49L40,65.3C80,82,160,114,240,106.2C320,98,400,49,480,89.8C560,131,640,261,720,310.3C800,359,880,327,960,310.3C1040,294,1120,294,1200,310.3C1280,327,1360,359,1440,383.8C1520,408,1600,425,1680,432.8C1760,441,1840,441,1920,392C2000,343,2080,245,2160,236.8C2240,229,2320,310,2400,285.8C2480,261,2560,131,2640,106.2C2720,82,2800,163,2880,236.8C2960,310,3040,376,3120,343C3200,310,3280,180,3360,114.3C3440,49,3520,49,3600,57.2C3680,65,3760,82,3840,106.2C3920,131,4000,163,4080,179.7C4160,196,4240,196,4320,204.2C4400,212,4480,229,4560,212.3C4640,196,4720,147,4800,179.7C4880,212,4960,327,5040,367.5C5120,408,5200,376,5280,302.2C5360,229,5440,114,5520,122.5C5600,131,5680,261,5720,326.7L5760,392L5760,490L5720,490C5680,490,5600,490,5520,490C5440,490,5360,490,5280,490C5200,490,5120,490,5040,490C4960,490,4880,490,4800,490C4720,490,4640,490,4560,490C4480,490,4400,490,4320,490C4240,490,4160,490,4080,490C4000,490,3920,490,3840,490C3760,490,3680,490,3600,490C3520,490,3440,490,3360,490C3280,490,3200,490,3120,490C3040,490,2960,490,2880,490C2800,490,2720,490,2640,490C2560,490,2480,490,2400,490C2320,490,2240,490,2160,490C2080,490,2000,490,1920,490C1840,490,1760,490,1680,490C1600,490,1520,490,1440,490C1360,490,1280,490,1200,490C1120,490,1040,490,960,490C880,490,800,490,720,490C640,490,560,490,480,490C400,490,320,490,240,490C160,490,80,490,40,490L0,490Z"/></svg>