<?xml version="1.0" standalone="no"?>
<svg xmlns:xlink="http://www.w3.org/1999/xlink" id="wave" style="transform:rotate(0deg); transition: 0.3s" viewBox="0 0 1440 490" version="1.1" xmlns="http://www.w3.org/2000/svg"><defs><linearGradient id="sw-gradient-0" x1="0" x2="0" y1="1" y2="0"><stop stop-color="rgba(40, 187, 133, 1)" offset="0%"/><stop stop-color="rgba(190, 237, 192, 1)" offset="100%"/></linearGradient></defs><path style="transform:translate(0, 0px); opacity:1" fill="url(#sw-gradient-0)" d="M0,294L30,245C60,196,120,98,180,81.7C240,65,300,131,360,130.7C420,131,480,65,540,81.7C600,98,660,196,720,204.2C780,212,840,131,900,114.3C960,98,1020,147,1080,155.2C1140,163,1200,131,1260,98C1320,65,1380,33,1440,73.5C1500,114,1560,229,1620,302.2C1680,376,1740,408,1800,416.5C1860,425,1920,408,1980,392C2040,376,2100,359,2160,351.2C2220,343,2280,343,2340,302.2C2400,261,2460,180,2520,122.5C2580,65,2640,33,2700,49C2760,65,2820,131,2880,187.8C2940,245,3000,294,3060,294C3120,294,3180,245,3240,253.2C3300,261,3360,327,3420,334.8C3480,343,3540,294,3600,236.8C3660,180,3720,114,3780,122.5C3840,131,3900,212,3960,212.3C4020,212,4080,131,4140,130.7C4200,131,4260,212,4290,253.2L4320,294L4320,490L4290,490C4260,490,4200,490,4140,490C4080,490,4020,490,3960,490C3900,490,3840,490,3780,490C3720,490,3660,490,3600,490C3540,490,3480,490,3420,490C3360,490,3300,490,3240,490C3180,490,3120,490,3060,490C3000,490,2940,490,2880,490C2820,490,2760,490,2700,490C2640,490,2580,490,2520,490C2460,490,2400,490,2340,490C2280,490,2220,490,2160,490C2100,490,2040,490,1980,490C1920,490,1860,490,1800,490C1740,490,1680,490,1620,490C1560,490,1500,490,1440,490C1380,490,1320,490,1260,490C1200,490,1140,490,1080,490C1020,490,960,490,900,490C840,490,780,490,720,490C660,490,600,490,540,490C480,490,420,490,360,490C300,490,240,490,180,490C120,490,60,490,30,490L0,490Z"/><defs><linearGradient id="sw-gradient-1" x1="0" x2="0" y1="1" y2="0"><stop stop-color="rgba(40, 187, 133, 1)" offset="0%"/><stop stop-color="rgba(190, 237, 192, 1)" offset="100%"/></linearGradient></defs><path style="transform:translate(0, 50px); opacity:0.9" fill="url(#sw-gradient-1)" d="M0,392L30,359.3C60,327,120,261,180,245C240,229,300,261,360,302.2C420,343,480,392,540,416.5C600,441,660,441,720,392C780,343,840,245,900,245C960,245,1020,343,1080,318.5C1140,294,1200,147,1260,138.8C1320,131,1380,261,1440,326.7C1500,392,1560,392,1620,383.8C1680,376,1740,359,1800,302.2C1860,245,1920,147,1980,138.8C2040,131,2100,212,2160,245C2220,278,2280,261,2340,245C2400,229,2460,212,2520,204.2C2580,196,2640,196,2700,196C2760,196,2820,196,2880,196C2940,196,3000,196,3060,204.2C3120,212,3180,229,3240,269.5C3300,310,3360,376,3420,359.3C3480,343,3540,245,3600,196C3660,147,3720,147,3780,163.3C3840,180,3900,212,3960,261.3C4020,310,4080,376,4140,351.2C4200,327,4260,212,4290,155.2L4320,98L4320,490L4290,490C4260,490,4200,490,4140,490C4080,490,4020,490,3960,490C3900,490,3840,490,3780,490C3720,490,3660,490,3600,490C3540,490,3480,490,3420,490C3360,490,3300,490,3240,490C3180,490,3120,490,3060,490C3000,490,2940,490,2880,490C2820,490,2760,490,2700,490C2640,490,2580,490,2520,490C2460,490,2400,490,2340,490C2280,490,2220,490,2160,490C2100,490,2040,490,1980,490C1920,490,1860,490,1800,490C1740,490,1680,490,1620,490C1560,490,1500,490,1440,490C1380,490,1320,490,1260,490C1200,490,1140,490,1080,490C1020,490,960,490,900,490C840,490,780,490,720,490C660,490,600,490,540,490C480,490,420,490,360,490C300,490,240,490,180,490C120,490,60,490,30,490L0,490Z"/><defs><linearGradient id="sw-gradient-2" x1="0" x2="0" y1="1" y2="0"><stop stop-color="rgba(40, 187, 133, 1)" offset="0%"/><stop stop-color="rgba(190, 237, 192, 1)" offset="100%"/></linearGradient></defs><path style="transform:translate(0, 100px); opacity:0.8" fill="url(#sw-gradient-2)" d="M0,98L30,106.2C60,114,120,131,180,122.5C240,114,300,82,360,106.2C420,131,480,212,540,220.5C600,229,660,163,720,171.5C780,180,840,261,900,285.8C960,310,1020,278,1080,220.5C1140,163,1200,82,1260,40.8C1320,0,1380,0,1440,16.3C1500,33,1560,65,1620,138.8C1680,212,1740,327,1800,367.5C1860,408,1920,376,1980,343C2040,310,2100,278,2160,253.2C2220,229,2280,212,2340,236.8C2400,261,2460,327,2520,294C2580,261,2640,131,2700,106.2C2760,82,2820,163,2880,187.8C2940,212,3000,180,3060,171.5C3120,163,3180,180,3240,220.5C3300,261,3360,327,3420,302.2C3480,278,3540,163,3600,163.3C3660,163,3720,278,3780,302.2C3840,327,3900,261,3960,269.5C4020,278,4080,359,4140,400.2C4200,441,4260,441,4290,441L4320,441L4320,490L4290,490C4260,490,4200,490,4140,490C4080,490,4020,490,3960,490C3900,490,3840,490,3780,490C3720,490,3660,490,3600,490C3540,490,3480,490,3420,490C3360,490,3300,490,3240,490C3180,490,3120,490,3060,490C3000,490,2940,490,2880,490C2820,490,2760,490,2700,490C2640,490,2580,490,2520,490C2460,490,2400,490,2340,490C2280,490,2220,490,2160,490C2100,490,2040,490,1980,490C1920,490,1860,490,1800,490C1740,490,1680,490,1620,490C1560,490,1500,490,1440,490C1380,490,1320,490,1260,490C1200,490,1140,490,1080,490C1020,490,960,490,900,490C840,490,780,490,720,490C660,490,600,490,540,490C480,490,420,490,360,490C300,490,240,490,180,490C120,490,60,490,30,490L0,490Z"/><defs><linearGradient id="sw-gradient-3" x1="0" x2="0" y1="1" y2="0"><stop stop-color="rgba(40, 187, 133, 1)" offset="0%"/><stop stop-color="rgba(190, 237, 192, 1)" offset="100%"/></linearGradient></defs><path style="transform:translate(0, 150px); opacity:0.7" fill="url(#sw-gradient-3)" d="M0,245L30,261.3C60,278,120,310,180,318.5C240,327,300,310,360,285.8C420,261,480,229,540,212.3C600,196,660,196,720,236.8C780,278,840,359,900,392C960,425,1020,408,1080,400.2C1140,392,1200,392,1260,375.7C1320,359,1380,327,1440,269.5C1500,212,1560,131,1620,138.8C1680,147,1740,245,1800,269.5C1860,294,1920,245,1980,261.3C2040,278,2100,359,2160,359.3C2220,359,2280,278,2340,269.5C2400,261,2460,327,2520,318.5C2580,310,2640,229,2700,212.3C2760,196,2820,245,2880,269.5C2940,294,3000,294,3060,245C3120,196,3180,98,3240,57.2C3300,16,3360,33,3420,89.8C3480,147,3540,245,3600,269.5C3660,294,3720,245,3780,261.3C3840,278,3900,359,3960,334.8C4020,310,4080,180,4140,106.2C4200,33,4260,16,4290,8.2L4320,0L4320,490L4290,490C4260,490,4200,490,4140,490C4080,490,4020,490,3960,490C3900,490,3840,490,3780,490C3720,490,3660,490,3600,490C3540,490,3480,490,3420,490C3360,490,3300,490,3240,490C3180,490,3120,490,3060,490C3000,490,2940,490,2880,490C2820,490,2760,490,2700,490C2640,490,2580,490,2520,490C2460,490,2400,490,2340,490C2280,490,2220,490,2160,490C2100,490,2040,490,1980,490C1920,490,1860,490,1800,490C1740,490,1680,490,1620,490C1560,490,1500,490,1440,490C1380,490,1320,490,1260,490C1200,490,1140,490,1080,490C1020,490,960,490,900,490C840,490,780,490,720,490C660,490,600,490,540,490C480,490,420,490,360,490C300,490,240,490,180,490C120,490,60,490,30,490L0,490Z"/></svg>